<?xml version="1.0" encoding="utf-8"?>
<!-- Generator: Adobe Illustrator 25.1.0, SVG Export Plug-In . SVG Version: 6.00 Build 0)  -->
<svg version="1.1" xmlns="http://www.w3.org/2000/svg" xmlns:xlink="http://www.w3.org/1999/xlink" x="0px" y="0px" width="11.1px"
	 height="14.8px" viewBox="0 0 11.1 14.8" style="enable-background:new 0 0 11.1 14.8;" xml:space="preserve">
<style type="text/css">
	.st0{fill:#FFFFFF;}
</style>
<g id="Calque_1">
</g>
<g id="textes">
	<path class="st0" d="M5,14.5c-0.5-0.7-1.1-1.7-1.9-2.8c-1-1.4-1.6-2.3-1.9-2.8C0.7,8.2,0.4,7.7,0.2,7.2C0.1,6.7,0,6.2,0,5.6
		c0-1,0.3-1.9,0.8-2.8c0.5-0.8,1.2-1.5,2-2C3.6,0.3,4.6,0,5.6,0c1,0,1.9,0.3,2.8,0.8c0.8,0.5,1.5,1.2,2,2c0.5,0.8,0.8,1.8,0.8,2.8
		c0,0.6-0.1,1.2-0.2,1.6S10.4,8.2,10,8.9C9.7,9.4,9,10.4,8.1,11.7l-1.9,2.8c-0.1,0.2-0.3,0.3-0.6,0.3C5.3,14.8,5.1,14.7,5,14.5z
		 M5.6,7.9c0.6,0,1.2-0.2,1.6-0.7c0.5-0.5,0.7-1,0.7-1.6c0-0.6-0.2-1.2-0.7-1.6c-0.5-0.5-1-0.7-1.6-0.7c-0.6,0-1.2,0.2-1.6,0.7
		c-0.5,0.5-0.7,1-0.7,1.6c0,0.6,0.2,1.2,0.7,1.6C4.4,7.6,4.9,7.9,5.6,7.9z"/>
</g>
</svg>
