<?xml version="1.0" encoding="utf-8"?>
<!-- Generator: Adobe Illustrator 25.1.0, SVG Export Plug-In . SVG Version: 6.00 Build 0)  -->
<svg version="1.1" xmlns="http://www.w3.org/2000/svg" xmlns:xlink="http://www.w3.org/1999/xlink" x="0px" y="0px" width="12.6px"
	 height="12.6px" viewBox="0 0 12.6 12.6" style="enable-background:new 0 0 12.6 12.6;" xml:space="preserve">
<style type="text/css">
	.st0{fill:#FFFFFF;}
</style>
<g id="Calque_1">
</g>
<g id="textes">
	<path class="st0" d="M11.4,0H1.2C0.5,0,0,0.5,0,1.2v10.2c0,0.7,0.5,1.2,1.2,1.2h10.2c0.7,0,1.2-0.5,1.2-1.2V1.2
		C12.6,0.5,12,0,11.4,0z M3.8,10.7H2.1V4.4h1.7V10.7z M3.6,3.4C3.4,3.5,3.2,3.6,2.9,3.6S2.4,3.5,2.2,3.4S2,3,2,2.7
		C2,2.5,2,2.3,2.2,2.1s0.4-0.2,0.7-0.2c0.3,0,0.5,0.1,0.7,0.2s0.3,0.4,0.3,0.6C3.9,3,3.8,3.2,3.6,3.4z M10.6,10.7H8.9V6.6
		c0-0.4-0.1-0.6-0.2-0.8S8.2,5.6,7.9,5.6c-0.5,0-0.8,0.2-1.1,0.6v4.5H5.1V4.4h1.6l0.1,0.7c0.5-0.6,1.1-0.8,1.8-0.8
		c0.7,0,1.2,0.2,1.5,0.6s0.5,1,0.5,1.8V10.7z"/>
</g>
</svg>
