<?xml version="1.0" encoding="utf-8"?>
<!-- Generator: Adobe Illustrator 25.1.0, SVG Export Plug-In . SVG Version: 6.00 Build 0)  -->
<svg version="1.1" xmlns="http://www.w3.org/2000/svg" xmlns:xlink="http://www.w3.org/1999/xlink" x="0px" y="0px" width="9.3px"
	 height="14.8px" viewBox="0 0 9.3 14.8" style="enable-background:new 0 0 9.3 14.8;" xml:space="preserve">
<style type="text/css">
	.st0{fill:#FFFFFF;}
</style>
<g id="Calque_1">
</g>
<g id="textes">
	<path class="st0" d="M8.9,0.4c0.3,0.3,0.4,0.6,0.4,1v12c0,0.4-0.1,0.7-0.4,1c-0.3,0.3-0.6,0.4-1,0.4H1.4c-0.4,0-0.7-0.1-1-0.4
		c-0.3-0.3-0.4-0.6-0.4-1v-12c0-0.4,0.1-0.7,0.4-1C0.7,0.1,1,0,1.4,0h6.5C8.3,0,8.6,0.1,8.9,0.4z M7.9,1.7c0-0.1,0-0.2-0.1-0.2
		C7.7,1.4,7.6,1.4,7.5,1.4H1.7c-0.1,0-0.2,0-0.2,0.1C1.4,1.6,1.4,1.6,1.4,1.7v9c0,0.1,0,0.2,0.1,0.2c0.1,0.1,0.1,0.1,0.2,0.1h5.8
		c0.1,0,0.2,0,0.2-0.1c0.1-0.1,0.1-0.1,0.1-0.2V1.7z M5.3,13.6c0.2-0.2,0.3-0.4,0.3-0.7s-0.1-0.5-0.3-0.7C5.1,12.1,4.9,12,4.6,12
		S4.2,12.1,4,12.3c-0.2,0.2-0.3,0.4-0.3,0.7s0.1,0.5,0.3,0.7c0.2,0.2,0.4,0.3,0.7,0.3S5.1,13.8,5.3,13.6z"/>
</g>
</svg>
