<?xml version="1.0" encoding="utf-8"?>
<!-- Generator: Adobe Illustrator 25.1.0, SVG Export Plug-In . SVG Version: 6.00 Build 0)  -->
<svg version="1.1" xmlns="http://www.w3.org/2000/svg" xmlns:xlink="http://www.w3.org/1999/xlink" x="0px" y="0px" width="14.8px"
	 height="11.1px" viewBox="0 0 14.8 11.1" style="enable-background:new 0 0 14.8 11.1;" xml:space="preserve">
<style type="text/css">
	.st0{fill:#FFFFFF;}
</style>
<g id="Calque_1">
</g>
<g id="textes">
	<path class="st0" d="M6.5,7.1C6.3,6.9,6,6.7,5.6,6.4L5.3,6.2c-2.4-1.7-4-2.9-4.8-3.6L0.3,2.5C0.1,2.4,0,2.2,0,1.9V1.4
		c0-0.4,0.1-0.7,0.4-1C0.7,0.1,1,0,1.4,0h12c0.4,0,0.7,0.1,1,0.4c0.3,0.3,0.4,0.6,0.4,1v0.5c0,0.2-0.1,0.4-0.3,0.5l-0.1,0.1
		C13.6,3.3,12,4.5,9.5,6.2L9.2,6.4C8.8,6.7,8.5,6.9,8.3,7.1C8,7.3,7.7,7.4,7.4,7.4C7.2,7.4,6.8,7.3,6.5,7.1z M10.1,6.9L9.8,7.2
		C9.3,7.5,9,7.8,8.7,7.9C8.2,8.2,7.8,8.3,7.4,8.3S6.6,8.2,6.1,8C5.9,7.8,5.5,7.6,5,7.2L4.7,6.9C2.4,5.2,0.9,4.2,0.3,3.7
		c-0.1,0-0.1,0-0.2,0S0,3.7,0,3.8v5.9c0,0.4,0.1,0.7,0.4,1c0.3,0.3,0.6,0.4,1,0.4h12c0.4,0,0.7-0.1,1-0.4c0.3-0.3,0.4-0.6,0.4-1V3.8
		c0-0.1,0-0.1-0.1-0.2c-0.1,0-0.1,0-0.2,0C13.8,4.2,12.3,5.3,10.1,6.9z"/>
</g>
</svg>
